<svg width="45" height="45" viewBox="0 0 45 45" fill="none" xmlns="http://www.w3.org/2000/svg">
<rect width="45" height="45" rx="8" fill="#F6CE7E"/>
<path fill-rule="evenodd" clip-rule="evenodd" d="M15.5384 12.7666V14.1525H12.7666C10.4716 14.1525 8.61035 16.0137 8.61035 18.3087V22.465C8.61035 23.6962 9.14548 24.8015 9.99621 25.5627V32.1635C9.99621 34.4585 11.8574 36.3197 14.1525 36.3197H30.7775C33.0725 36.3197 34.9337 34.4585 34.9337 32.1635V25.5627C35.7844 24.8015 36.3196 23.6962 36.3196 22.465V18.3087C36.3196 16.0137 34.4583 14.1525 32.1633 14.1525H29.3916V12.7666C29.3916 10.4716 27.5317 8.61035 25.2354 8.61035H19.6946C17.3983 8.61035 15.5384 10.4716 15.5384 12.7666ZM27.9369 23.8508H32.1634C32.9284 23.8508 33.5479 23.23 33.5479 22.465V18.3087C33.5479 17.5437 32.9284 16.9229 32.1634 16.9229H12.7666C12.0016 16.9229 11.3821 17.5437 11.3821 18.3087V22.465C11.3821 23.23 12.0016 23.8508 12.7666 23.8508H16.993C17.3139 22.2689 18.7114 21.0791 20.3869 21.0791H24.5431C26.2186 21.0791 27.6162 22.2689 27.9369 23.8508ZM16.993 26.6212H12.7666V32.1633C12.7666 32.9283 13.3875 33.5479 14.1525 33.5479H30.7775C31.5425 33.5479 32.1634 32.9283 32.1634 32.1633V26.6212H27.9369C27.6161 28.2019 26.2186 29.3916 24.5431 29.3916H20.3869C18.7114 29.3916 17.3138 28.2019 16.993 26.6212ZM26.6212 14.1525V12.7666C26.6212 12.0016 26.0004 11.382 25.2354 11.382H19.6946C18.9296 11.382 18.3087 12.0016 18.3087 12.7666V14.1525H26.6212ZM19.6946 24.5431C19.6946 24.1599 20.0037 23.8508 20.3869 23.8508H24.5431C24.9263 23.8508 25.2354 24.1599 25.2354 24.5431V25.9289C25.2354 26.3108 24.9263 26.6212 24.5431 26.6212H20.3869C20.0037 26.6212 19.6946 26.3108 19.6946 25.9289V24.5431Z" fill="#845F15"/>
<path fill-rule="evenodd" clip-rule="evenodd" d="M20.3866 23.8508C20.0035 23.8508 19.6943 24.16 19.6943 24.5431V25.929C19.6943 26.3108 20.0035 26.6212 20.3866 26.6212H24.5429C24.926 26.6212 25.2351 26.3108 25.2351 25.929V24.5431C25.2351 24.16 24.926 23.8508 24.5429 23.8508H20.3866Z" fill="white"/>
</svg>
