<svg width="112" height="27" viewBox="0 0 112 27" fill="none" xmlns="http://www.w3.org/2000/svg">
<rect opacity="0.8" x="16.7007" y="14.0454" width="4.5548" height="12.9053" fill="#009444"/>
<g style="mix-blend-mode:multiply" opacity="0.5">
<path d="M24.292 13.666H31.8833C31.8979 9.48835 28.4993 6.08976 24.292 6.07471V13.666Z" fill="#2BB673"/>
</g>
<rect opacity="0.8" x="49.7227" y="13.666" width="4.5548" height="7.59133" fill="#D7DF23"/>
<rect opacity="0.8" x="60.7305" y="13.666" width="4.5548" height="7.59133" fill="#D7DF23"/>
<rect opacity="0.8" x="88.439" y="13.666" width="4.5548" height="7.59133" fill="#92278F"/>
<path opacity="0.8" d="M85.4029 13.6655H77.8116C77.797 9.48786 81.1955 6.08927 85.4029 6.07422V13.6655Z" fill="#92278F"/>
<path opacity="0.8" fill-rule="evenodd" clip-rule="evenodd" d="M77.8115 13.6656C77.8115 9.47301 81.2102 6.07425 85.4028 6.07422C87.4162 6.07421 89.347 6.87401 90.7707 8.29767C92.1944 9.72132 92.9942 11.6522 92.9942 13.6656C92.9942 17.8581 89.5954 21.2569 85.4028 21.2569C81.2103 21.2569 77.8115 17.8581 77.8115 13.6656ZM85.4028 16.7962C85.6147 16.7963 85.8261 16.775 86.0338 16.7326C87.6072 16.4087 88.6802 14.9468 88.5175 13.3487C88.3548 11.7505 87.0091 10.5348 85.4028 10.5347C83.6737 10.5347 82.272 11.9364 82.272 13.6655C82.272 15.3945 83.6737 16.7962 85.4028 16.7962Z" fill="#92278F"/>
<path opacity="0.8" d="M57.6944 6.07471C54.1252 6.07284 51.0374 8.54809 50.2777 12.0201C49.5179 15.4921 51.2917 19.0218 54.5382 20.4982V13.5789H54.5694C54.5951 11.8789 55.9867 10.5141 57.6944 10.5141C59.4022 10.5141 60.7938 11.8789 60.8195 13.5789H60.8539V20.4966C64.099 19.0189 65.8711 15.4894 65.1107 12.0183C64.3502 8.54718 61.2629 6.07288 57.6944 6.07471H57.6944Z" fill="#D7DF23"/>
<rect opacity="0.8" x="96.0303" y="1.14014" width="4.5548" height="12.9053" fill="#F9ED32"/>
<path opacity="0.6" fill-rule="evenodd" clip-rule="evenodd" d="M96.0303 14.0454C96.0303 9.85283 99.429 6.45409 103.622 6.4541C107.814 6.45412 111.213 9.85288 111.213 14.0454C111.213 18.238 107.814 21.6368 103.622 21.6368C99.429 21.6367 96.0303 18.238 96.0303 14.0454ZM100.91 15.6107C101.469 16.5793 102.503 17.176 103.622 17.176C104.74 17.176 105.774 16.5793 106.333 15.6107C106.892 14.642 106.892 13.4486 106.333 12.4799C105.774 11.5113 104.74 10.9145 103.622 10.9145C102.503 10.9145 101.469 11.5113 100.91 12.4799C100.351 13.4486 100.351 14.642 100.91 15.6107Z" fill="#F9ED32"/>
<rect opacity="0.8" x="67.9424" y="0.760742" width="4.5548" height="12.9053" fill="#F7941D"/>
<path opacity="0.8" d="M72.4691 13.7089C72.4691 13.6959 72.4726 13.6839 72.4728 13.6709H72.4001V6.83398C69.1445 8.3014 67.3595 11.8288 68.1143 15.3032C68.8692 18.7777 71.9593 21.2576 75.5337 21.2575V16.7566C74.7209 16.7566 73.9414 16.4355 73.3667 15.864C72.7919 15.2924 72.469 14.5172 72.4691 13.7089Z" fill="#F7941D"/>
<path opacity="0.8" d="M42.7727 15.9159C41.5424 17.109 39.5821 17.0907 38.3743 15.875C37.1664 14.6593 37.1598 12.6979 38.3595 11.4741C39.5592 10.2503 41.5193 10.2189 42.7575 11.4036L45.913 8.24651C44.4971 6.85306 42.59 6.07296 40.6038 6.07479V6.07471L40.603 6.07475L40.6021 6.07471V6.07479C36.4146 6.07872 33.022 9.47628 33.022 13.666C33.022 17.8558 36.4146 21.2534 40.6021 21.2573V21.2574L40.603 21.2573L40.6038 21.2574V21.2573C42.5968 21.2592 44.5099 20.4739 45.9272 19.0721L42.7727 15.9159Z" fill="#EF4136"/>
<g style="mix-blend-mode:multiply" opacity="0.6">
<path d="M40.6133 13.666H33.022C33.0074 9.48835 36.406 6.08976 40.6133 6.07471V13.666Z" fill="#EF4136"/>
</g>
<path opacity="0.8" fill-rule="evenodd" clip-rule="evenodd" d="M16.7007 13.6656C16.7007 9.47303 20.0994 6.07425 24.292 6.07422C28.4845 6.0742 31.8833 9.47293 31.8833 13.6655C31.8834 17.8581 28.4846 21.2568 24.2921 21.2569C20.0995 21.2569 16.7007 17.8582 16.7007 13.6656ZM25.8718 16.4356C26.849 15.8695 27.4486 14.8239 27.4437 13.6946L27.4422 13.6801L27.4437 13.6654C27.4361 11.9301 26.0272 10.5273 24.2919 10.5273C22.5566 10.5273 21.1477 11.9301 21.1402 13.6654L21.1416 13.6799L21.1402 13.6946C21.1352 14.8239 21.7349 15.8695 22.7121 16.4356C23.6892 17.0017 24.8946 17.0017 25.8718 16.4356Z" fill="#2BB673"/>
<g style="mix-blend-mode:multiply" opacity="0.8">
<path d="M7.59084 13.6655H-0.000441412C-0.0150421 9.48786 3.38353 6.08927 7.59084 6.07422V13.6655Z" fill="#27AAE1"/>
</g>
<path opacity="0.8" fill-rule="evenodd" clip-rule="evenodd" d="M-0.000488281 13.6656C-0.000504269 9.47301 3.39822 6.07425 7.59078 6.07422C9.60414 6.07421 11.535 6.87401 12.9587 8.29767C14.3824 9.72132 15.1822 11.6522 15.1822 13.6656C15.1821 17.8581 11.7834 21.2569 7.59084 21.2569C3.39828 21.2569 -0.000472294 17.8581 -0.000488281 13.6656ZM4.659 14.8592C5.15131 16.0401 6.30694 16.8079 7.58641 16.804L7.58644 16.804C9.32971 16.8014 10.7408 15.386 10.7381 13.6428C10.7381 12.3633 9.96687 11.21 8.78442 10.7213C7.60197 10.2325 6.24151 10.5047 5.33815 11.4108C4.4348 12.3169 4.16669 13.6782 4.659 14.8592Z" fill="#27AAE1"/>
<path opacity="0.8" d="M48.2051 13.666C48.2027 9.4947 44.8137 6.10575 40.6138 6.07471V13.666H48.2051Z" fill="#EF4136"/>
<path opacity="0.8" d="M40.5572 16.7935C38.843 16.7658 37.4696 15.3652 37.4756 13.6509C37.4816 11.9365 38.8647 10.5456 40.5791 10.5298C42.2934 10.5141 43.7018 11.8795 43.7392 13.5934L48.2046 13.5958C48.1892 11.6085 47.3925 9.70707 45.9866 8.30236L45.9867 8.3023L45.9861 8.30175L45.9855 8.30108L45.9854 8.30113C43.022 5.33475 38.2149 5.33225 35.2485 8.29555C32.282 11.2588 32.2795 16.0658 35.2429 19.0322L35.2428 19.0322L35.2435 19.0329L35.244 19.0335L35.2441 19.0334C36.6521 20.4456 38.5607 21.2448 40.5549 21.2574L40.5572 16.7935Z" fill="#EF4136"/>
</svg>
