<svg width="45" height="45" viewBox="0 0 45 45" fill="none" xmlns="http://www.w3.org/2000/svg">
<rect width="45" height="45" rx="8" fill="#55C58F"/>
<path fill-rule="evenodd" clip-rule="evenodd" d="M11.7554 20.3059L9.11152 18.9932H9.11149C8.7378 18.8083 8.50044 18.425 8.50044 18.005C8.50044 17.5863 8.73783 17.203 9.11395 17.0169L22.0167 10.6139C22.3223 10.462 22.6802 10.462 22.9857 10.6139L35.8885 17.0169C36.2622 17.2018 36.4995 17.585 36.4995 18.005C36.4995 18.425 36.2622 18.8071 35.8885 18.9932L33.2446 20.3059L35.9299 21.7826C36.2889 21.981 36.5081 22.3618 36.4995 22.7732C36.491 23.1847 36.2549 23.5557 35.8885 23.7381L33.2556 25.0447L35.9323 26.5288C36.2889 26.7272 36.5081 27.1092 36.4983 27.5194C36.4886 27.9309 36.2537 28.3019 35.8873 28.4831L22.9845 34.8861C22.8323 34.962 22.6656 35 22.5 35C22.3344 35 22.1677 34.962 22.0155 34.8861L9.11273 28.4831C8.74635 28.3007 8.51142 27.9297 8.50168 27.5194C8.49193 27.108 8.70984 26.7272 9.0677 26.5288L11.7444 25.0447L9.11152 23.7381C8.74392 23.5569 8.50901 23.1847 8.50047 22.7732C8.49193 22.3618 8.71106 21.9798 9.07013 21.7826L11.7554 20.3059ZM22.4989 32.6685L33.0343 27.4397L30.8579 26.2336L22.9834 30.1423C22.8312 30.2182 22.6645 30.2562 22.4989 30.2562C22.3333 30.2562 22.1666 30.2182 22.0144 30.1423L14.1399 26.2336L11.9634 27.4397L22.4989 32.6685ZM33.027 22.6997L22.4991 27.9247L11.9711 22.6997L14.156 21.4973L22.0147 25.3972C22.1669 25.4731 22.3336 25.511 22.4992 25.511C22.6647 25.511 22.8315 25.4731 22.9836 25.3972L30.8423 21.4973L33.027 22.6997ZM32.9261 18.0064L22.4991 12.8316L12.0721 18.0051L22.4991 23.1799L32.9261 18.0064Z" fill="#135D39"/>
<path d="M22.4993 12.8315L32.9263 18.0064L22.4993 23.1799L12.0723 18.0051L22.4993 12.8315Z" fill="white"/>
</svg>
