<svg width="46" height="45" viewBox="0 0 46 45" fill="none" xmlns="http://www.w3.org/2000/svg">
<rect x="0.5" width="45" height="45" rx="8" fill="#F497A9"/>
<path d="M25.9138 28.8176C25.2918 29.0746 24.6451 29.2483 23.9793 29.3372C24.0722 29.3235 24.1597 29.3125 24.2527 29.2989C23.5691 29.3836 22.8787 29.3836 22.1992 29.292C22.2921 29.3057 22.3796 29.3166 22.4726 29.3303C21.8164 29.2374 21.1806 29.0637 20.5695 28.8081L20.8156 28.9106C20.3713 28.7219 19.9474 28.4977 19.5468 28.2311C19.4484 28.1655 19.3486 28.0971 19.2529 28.026C19.1873 27.9782 19.0041 27.81 19.2556 28.0329C19.2173 27.9987 19.1777 27.9672 19.1353 27.9372C18.9439 27.7799 18.7593 27.6159 18.5843 27.4422C18.4162 27.2741 18.2535 27.0977 18.1031 26.9159C18.0648 26.8721 18.0279 26.8229 17.991 26.7764C17.8707 26.6287 18.1523 26.9883 18.0115 26.801C17.9404 26.7053 17.872 26.6069 17.8037 26.5071C17.5302 26.0996 17.2978 25.6704 17.1037 25.2178C17.1379 25.2998 17.172 25.3819 17.2062 25.4639C16.9396 24.8282 16.7578 24.1651 16.6662 23.4842C16.6798 23.5772 16.6908 23.6647 16.7045 23.7577C16.6197 23.0741 16.6197 22.3836 16.7113 21.7041C16.6976 21.7971 16.6867 21.8846 16.673 21.9776C16.766 21.3213 16.9396 20.6815 17.1953 20.0745C17.1611 20.1565 17.1269 20.2385 17.0927 20.3205C17.2814 19.8762 17.5097 19.4483 17.7763 19.0463C17.8419 18.9479 17.913 18.8481 17.9814 18.7524C18.1386 18.5364 17.8652 18.8918 17.9787 18.7551C18.0087 18.7141 18.0443 18.6772 18.0744 18.6348C18.2316 18.4434 18.3998 18.2588 18.5734 18.0838C18.7443 17.9129 18.9179 17.753 19.1039 17.6026C19.1517 17.5643 19.1968 17.5274 19.2433 17.4905C19.391 17.3702 19.0314 17.6518 19.2187 17.511C19.3144 17.4399 19.4128 17.3715 19.5126 17.3032C19.9228 17.0297 20.3576 16.7973 20.8087 16.6059C20.7267 16.6401 20.6447 16.6743 20.5626 16.7085C21.1738 16.4555 21.8095 16.2819 22.4658 16.1862C22.3728 16.1999 22.2853 16.2108 22.1923 16.2245C22.8759 16.1315 23.5623 16.1315 24.2458 16.2176C24.1529 16.204 24.0654 16.193 23.9724 16.1793C24.656 16.2723 25.3191 16.4528 25.9548 16.7194C25.8728 16.6852 25.7908 16.651 25.7088 16.6169C26.1531 16.8083 26.5838 17.0379 26.983 17.3114C27.0814 17.3798 27.1812 17.4481 27.2769 17.5192C27.4929 17.6805 27.1375 17.403 27.2742 17.5165C27.3152 17.5507 27.3521 17.5821 27.3945 17.6149C27.5791 17.768 27.7568 17.9294 27.9277 18.1003C28.0986 18.2712 28.2585 18.4489 28.413 18.6334C28.4472 18.6745 28.4786 18.7114 28.5087 18.7538C28.6181 18.8905 28.3447 18.535 28.506 18.751C28.5771 18.8467 28.6454 18.9452 28.7138 19.0477C28.9845 19.451 29.2128 19.8817 29.4015 20.326C29.3673 20.244 29.3331 20.1619 29.2989 20.0799C29.5519 20.6911 29.7296 21.3309 29.8212 21.983C29.8075 21.8901 29.7966 21.8026 29.7829 21.7096C29.8759 22.3932 29.8759 23.0795 29.7898 23.7631C29.8034 23.6702 29.8144 23.5827 29.828 23.4897C29.7351 24.1733 29.5546 24.8364 29.288 25.4694C29.3222 25.3873 29.3564 25.3053 29.3905 25.2233C29.1991 25.6676 28.9695 26.0955 28.7029 26.4947C28.6345 26.5932 28.5661 26.693 28.495 26.7887C28.3337 27.0047 28.6113 26.6492 28.4978 26.786C28.4677 26.827 28.4322 26.8639 28.4021 26.9063C28.249 27.0908 28.0876 27.2686 27.9208 27.4367C27.7499 27.6076 27.5763 27.7676 27.3904 27.918C27.3493 27.9522 27.3124 27.9836 27.2701 28.0137C27.1333 28.1231 27.4888 27.8496 27.2728 28.011C27.1771 28.082 27.0786 28.1504 26.9788 28.2188C26.5796 28.4895 26.1517 28.7178 25.7074 28.9092L25.9535 28.8067C25.9466 28.8039 25.9302 28.8094 25.9138 28.8176C25.654 28.927 25.449 29.0364 25.3027 29.2893C25.1728 29.508 25.1181 29.8334 25.2001 30.0795C25.2781 30.3284 25.4326 30.569 25.6718 30.6907C25.8974 30.811 26.216 30.8985 26.4621 30.7932C27.2892 30.4446 28.0275 30.0166 28.7316 29.4561C29.3632 28.953 29.9005 28.3487 30.3695 27.6897C31.4113 26.2241 31.9527 24.3879 31.9172 22.593C31.883 20.8293 31.3088 19.052 30.2423 17.637C29.7023 16.9233 29.1007 16.3177 28.3857 15.7776C27.7226 15.2745 26.9843 14.8999 26.2091 14.6059C22.8431 13.3413 18.8098 14.4446 16.5596 17.2514C15.9991 17.9514 15.5588 18.6897 15.217 19.5182C14.8589 20.3864 14.6633 21.312 14.6018 22.2499C14.4856 24.0518 14.9737 25.9168 15.9594 27.4316C16.8344 28.7742 18.0786 29.9062 19.5413 30.5789C21.3324 31.402 23.3283 31.6316 25.2533 31.1832C25.6662 31.0875 26.0709 30.9576 26.4592 30.7936C26.7162 30.6869 26.924 30.5721 27.0703 30.3219C27.2002 30.1031 27.2549 29.7777 27.1729 29.5316C27.0949 29.2828 26.9404 29.0422 26.7012 28.9205C26.4769 28.8002 26.1625 28.7141 25.9137 28.818L25.9138 28.8176Z" fill="#912D40"/>
<rect x="9.5" y="20.5" width="5.5" height="4.5" fill="white"/>
<rect x="31" y="20.5" width="5.5" height="4.5" fill="white"/>
<rect x="25.25" y="9.25" width="5.5" height="4.5" transform="rotate(90 25.25 9.25)" fill="white"/>
<rect x="25.25" y="30.75" width="5.5" height="4.5" transform="rotate(90 25.25 30.75)" fill="white"/>
<path d="M38.3548 19.567C37.7588 16.6959 36.3068 14.0164 34.256 11.9286C32.2079 9.84365 29.5502 8.3439 26.6981 7.7041C23.2254 6.92479 19.5749 7.35821 16.3839 8.92774C13.7754 10.2102 11.5578 12.2746 10.0472 14.7521C8.30401 17.6163 7.52883 21.0713 7.90753 24.4044C8.0962 26.0614 8.52686 27.6378 9.20911 29.1595C9.80383 30.4884 10.6105 31.7134 11.5538 32.8236C13.4433 35.0426 15.9971 36.6901 18.7862 37.5336C22.0948 38.5385 25.789 38.3922 28.9922 37.0756C30.4168 36.4904 31.7129 35.7289 32.9189 34.7719C34.0564 33.8695 35.0408 32.7922 35.883 31.6068C37.756 28.9723 38.7376 25.7142 38.6748 22.4876C38.6652 21.5059 38.549 20.5243 38.3549 19.5672C38.2482 19.0409 37.5961 18.6895 37.0943 18.8495C36.5365 19.0299 36.263 19.5467 36.3765 20.11C36.4421 20.4245 36.4927 20.7417 36.5378 21.0602C36.5242 20.9672 36.5132 20.8797 36.4996 20.7868C36.6705 22.0719 36.6732 23.3735 36.5064 24.6585C36.5201 24.5655 36.531 24.478 36.5447 24.385C36.3738 25.6456 36.0415 26.8801 35.5493 28.0558C35.5835 27.9738 35.6177 27.8918 35.6519 27.8097C35.3675 28.4797 35.0367 29.1291 34.6566 29.7512C34.4679 30.0547 34.271 30.3527 34.0618 30.6426C34.0099 30.7137 33.9593 30.782 33.9087 30.8545C33.8841 30.8846 33.8609 30.9201 33.8376 30.9502C33.7255 31.1006 33.9989 30.7451 33.8814 30.8928C33.7611 31.0432 33.6462 31.1895 33.5232 31.333C33.0611 31.8771 32.5634 32.3857 32.0261 32.8574C31.8962 32.9736 31.7636 33.0871 31.6269 33.1965C31.5654 33.2484 31.5039 33.2949 31.4423 33.3469C31.3849 33.3906 31.2304 33.5 31.4998 33.3031C31.4615 33.3305 31.4246 33.3605 31.3877 33.3879C31.0978 33.6066 30.797 33.8145 30.4881 34.0141C29.8004 34.4516 29.0771 34.8316 28.3252 35.1488C28.4072 35.1147 28.4892 35.0805 28.5712 35.0463C27.3955 35.5385 26.1623 35.8735 24.9004 36.0416C24.9934 36.028 25.0809 36.017 25.1739 36.0034C23.8887 36.1715 22.5872 36.1674 21.3022 35.9965C21.3952 36.0102 21.4827 36.0211 21.5756 36.0348C20.3247 35.8612 19.101 35.529 17.9363 35.0367C18.0184 35.0709 18.1004 35.1051 18.1824 35.1393C17.5125 34.8549 16.8672 34.5241 16.2479 34.1412C15.9443 33.9526 15.6463 33.7557 15.3564 33.5465C15.2854 33.4946 15.217 33.444 15.1445 33.3934C15.1145 33.3688 15.083 33.3455 15.0488 33.3223C14.8984 33.2102 15.2539 33.4836 15.1062 33.366C14.9559 33.2457 14.8096 33.1309 14.666 33.0079C14.1219 32.5457 13.616 32.0481 13.1457 31.5108C13.0295 31.3809 12.9201 31.2483 12.8066 31.1116C12.7547 31.0501 12.7082 30.9885 12.659 30.927C12.6152 30.8696 12.5058 30.7151 12.7027 30.9844C12.6754 30.9462 12.6453 30.9092 12.618 30.8723C12.3992 30.5825 12.1914 30.2817 11.9959 29.9727C11.5584 29.285 11.1783 28.5618 10.8639 27.8126C10.898 27.8946 10.9322 27.9766 10.9664 28.0587C10.4742 26.887 10.1433 25.6524 9.97106 24.3917C9.98474 24.4847 9.99567 24.5722 10.0093 24.6651C9.84118 23.38 9.84529 22.0784 10.0162 20.7934C10.0025 20.8864 9.99157 20.9739 9.9779 21.0669C10.1515 19.8118 10.4865 18.5895 10.976 17.4192C10.9418 17.5012 10.9076 17.5832 10.8734 17.6653C11.1537 17.0022 11.4846 16.3596 11.8605 15.7485C12.0519 15.4367 12.2543 15.1332 12.4689 14.8352C12.5168 14.7695 12.5619 14.7053 12.6084 14.6438C12.6357 14.6055 12.6658 14.5686 12.6932 14.5317C12.8053 14.3813 12.5318 14.7367 12.6494 14.5891C12.7588 14.4524 12.8682 14.3156 12.9803 14.1816C13.4424 13.6375 13.94 13.1262 14.4773 12.6572C14.6072 12.541 14.7398 12.4275 14.8765 12.3181C14.938 12.2662 14.9996 12.2197 15.0611 12.1678C15.1185 12.124 15.2689 12.0105 15.0037 12.2115C15.0556 12.1732 15.1062 12.1336 15.1541 12.0953C15.4343 11.8875 15.7214 11.6851 16.0154 11.4965C16.7031 11.0563 17.4263 10.6762 18.1755 10.359C18.0935 10.3932 18.0115 10.4273 17.9295 10.4615C19.0943 9.96935 20.322 9.63846 21.573 9.46346C21.48 9.47713 21.3925 9.48807 21.2995 9.50174C22.5847 9.33085 23.8862 9.32811 25.1712 9.49491C25.0782 9.48124 24.9907 9.4703 24.8978 9.45663C26.1583 9.62752 27.3929 9.95975 28.5647 10.452C28.4827 10.4178 28.4007 10.3836 28.3186 10.3494C28.9886 10.6338 29.638 10.9646 30.2573 11.3447C30.5608 11.5334 30.8589 11.7276 31.1487 11.9395C31.2198 11.9914 31.2882 12.042 31.3607 12.0926C31.3907 12.1172 31.4222 12.1404 31.4564 12.1637C31.6067 12.2758 31.2513 12.0024 31.3989 12.1199C31.5493 12.2361 31.6956 12.3551 31.8392 12.4781C32.3833 12.9402 32.8919 13.4379 33.3595 13.9711C33.4757 14.101 33.5892 14.2336 33.6986 14.3703C33.7505 14.4318 33.797 14.4933 33.8462 14.5549C33.89 14.6123 34.0034 14.7627 33.8025 14.4974C33.8298 14.5357 33.8599 14.5726 33.8872 14.6095C34.106 14.8994 34.3138 15.2002 34.5134 15.5092C34.9509 16.1968 35.331 16.9173 35.6482 17.6666C35.614 17.5846 35.5798 17.5025 35.5456 17.4205C35.9121 18.2887 36.191 19.1869 36.3796 20.1111C36.489 20.6375 37.1384 20.9889 37.6402 20.8289C38.1939 20.6471 38.4701 20.1316 38.3552 19.567L38.3548 19.567Z" fill="#912D40"/>
<path d="M25.1617 8.64058V11.0263V14.827V15.6951C25.5965 15.367 26.0258 15.0362 26.4605 14.708C24.4535 13.8809 22.0785 13.8768 20.0688 14.6971C20.5036 15.0252 20.9329 15.3561 21.3676 15.6842V13.3026V9.50437V8.63619C21.1188 8.96432 20.8645 9.29517 20.6157 9.6233C20.9301 9.55767 21.2473 9.50709 21.5659 9.46197C21.4729 9.47564 21.3854 9.48658 21.2924 9.50025C22.5776 9.32935 23.8791 9.32662 25.1641 9.49341C25.0712 9.47974 24.9837 9.46881 24.8907 9.45513C25.2325 9.50298 25.5743 9.55767 25.9134 9.62876C26.4356 9.7354 27.0454 9.47837 27.1739 8.91098C27.2901 8.3983 27.0208 7.76529 26.4561 7.65042C24.3397 7.21565 22.1837 7.21565 20.0644 7.64359C19.6269 7.73246 19.3125 8.20415 19.3125 8.63069V11.0123V14.8105V15.6787C19.3125 16.0041 19.4629 16.2871 19.7158 16.4854C19.9482 16.6658 20.3174 16.7889 20.6113 16.6699C21.2101 16.4266 21.8281 16.2598 22.468 16.1668C22.375 16.1805 22.2875 16.1914 22.1945 16.2051C22.8781 16.1121 23.5645 16.1121 24.248 16.1982C24.1551 16.1846 24.0676 16.1736 23.9746 16.16C24.6418 16.2488 25.2871 16.4225 25.9092 16.6795C26.2031 16.7998 26.5681 16.6768 26.8047 16.4949C27.0576 16.3008 27.208 16.0164 27.208 15.6883V13.3026V9.5019V8.63373C27.208 8.09781 26.7363 7.58373 26.1826 7.60833C25.6289 7.63978 25.1613 8.06634 25.1613 8.64055L25.1617 8.64058Z" fill="#912D40"/>
<path d="M25.1612 29.8045V32.1903V35.9909V36.8591C25.4101 36.531 25.6644 36.2001 25.9132 35.872C25.5741 35.9404 25.2337 35.9978 24.8905 36.0456C24.9835 36.032 25.071 36.021 25.164 36.0074C23.8788 36.1755 22.5772 36.1714 21.2923 36.0005C21.3852 36.0142 21.4727 36.0251 21.5657 36.0388C21.2471 35.9951 20.93 35.9404 20.6155 35.8775C20.8643 36.2056 21.1186 36.5365 21.3675 36.8646V34.4829V30.6847V29.8166C20.9327 30.1447 20.5034 30.4755 20.0686 30.8037C22.0784 31.624 24.4545 31.6212 26.4603 30.7927C26.7174 30.6861 26.9252 30.5712 27.0715 30.321C27.2014 30.1023 27.256 29.7769 27.174 29.5308C27.0961 29.282 26.9416 29.0414 26.7023 28.9197C26.4767 28.7994 26.1623 28.7146 25.9121 28.8171C25.29 29.0742 24.6433 29.2478 23.9775 29.3367C24.0705 29.323 24.158 29.3121 24.251 29.2984C23.5674 29.3832 22.8769 29.3832 22.1975 29.2916C22.2904 29.3052 22.3779 29.3162 22.4709 29.3298C21.8311 29.241 21.2131 29.0701 20.6142 28.8267C20.3203 28.7064 19.9553 28.8294 19.7187 29.0113C19.4658 29.2054 19.3154 29.4898 19.3154 29.8179V32.1996V35.9978V36.8659C19.3154 37.2898 19.6299 37.7655 20.0674 37.853C22.1838 38.2796 24.344 38.2796 26.4591 37.8462C26.8966 37.7573 27.211 37.2857 27.211 36.8591V34.4734V30.6727V29.8045C27.211 29.2686 26.7393 28.7545 26.1856 28.7791C25.6292 28.8038 25.1616 29.2303 25.1616 29.8045L25.1612 29.8045Z" fill="#912D40"/>
<path d="M13.81 24.6572H10.0118H9.1436C9.47173 24.906 9.80258 25.1603 10.1307 25.4091C10.0624 25.07 10.0049 24.7296 9.95708 24.3864C9.97075 24.4794 9.98169 24.5669 9.99536 24.6599C9.8272 23.3747 9.8313 22.0732 10.0022 20.7882C9.98853 20.8811 9.97759 20.9686 9.96391 21.0616C10.0077 20.743 10.0624 20.4259 10.1252 20.1114C9.79712 20.3602 9.46626 20.6145 9.13814 20.8634H11.5198H15.318H16.1862C15.858 20.4286 15.5272 19.9993 15.1991 19.5645C14.3787 21.5743 14.3815 23.9465 15.21 25.9562C15.3166 26.2133 15.4315 26.4211 15.6817 26.5674C15.9004 26.6973 16.2258 26.7519 16.4719 26.6699C16.7207 26.592 16.9614 26.4375 17.0831 26.1982C17.2034 25.9726 17.2881 25.6582 17.1856 25.408C16.9286 24.7887 16.759 24.1392 16.666 23.4775C16.6797 23.5705 16.6907 23.658 16.7043 23.751C16.6196 23.0674 16.6196 22.3769 16.7112 21.6975C16.6975 21.7904 16.6866 21.8779 16.6729 21.9709C16.7659 21.3311 16.9327 20.7103 17.176 20.1142C17.2963 19.8203 17.1733 19.4553 16.9914 19.2187C16.7973 18.9658 16.5129 18.8154 16.1848 18.8154H13.8032H10.005H9.13678C8.71296 18.8154 8.23717 19.1299 8.14967 19.5674C7.72309 21.6838 7.72309 23.844 8.15241 25.9591C8.24127 26.3966 8.71297 26.711 9.13951 26.711H11.5253H15.3235H16.1916C16.7275 26.711 17.2416 26.2393 17.217 25.6856C17.1938 25.1292 16.77 24.6575 16.1957 24.6575L13.81 24.6572Z" fill="#912D40"/>
<path d="M36.6324 22.7499C36.6324 23.3898 36.5887 24.0282 36.5066 24.6613C36.5203 24.5683 36.5312 24.4808 36.5449 24.3878C36.4971 24.7296 36.4424 25.0714 36.3713 25.4105C36.6994 25.1617 37.0303 24.9074 37.3584 24.6585H34.9727H31.1745H30.3063C30.6344 25.0933 30.9653 25.5226 31.2934 25.9574C32.1205 23.9503 32.1246 21.5754 31.3043 19.5657C30.9762 20.0004 30.6453 20.4297 30.3172 20.8645H32.6989H36.4971H37.3652C37.0371 20.6156 36.7063 20.3613 36.3781 20.1125C36.4438 20.427 36.4943 20.7442 36.5395 21.0627C36.5258 20.9697 36.5149 20.8822 36.5012 20.7893C36.5873 21.4401 36.6324 22.0936 36.6324 22.7498C36.6324 23.2858 37.1041 23.7998 37.6578 23.7752C38.2115 23.7506 38.6832 23.324 38.6832 22.7498C38.6805 21.6834 38.5629 20.6143 38.3524 19.567C38.2635 19.1295 37.7918 18.8151 37.3653 18.8151H34.9836H31.1854H30.3172C29.9918 18.8151 29.7088 18.9655 29.5106 19.2184C29.3301 19.4508 29.2071 19.8199 29.326 20.1139C29.5694 20.7127 29.7362 21.3348 29.8291 21.9705C29.8155 21.8776 29.8045 21.7901 29.7909 21.6971C29.8838 22.3807 29.8838 23.067 29.7977 23.7506C29.8114 23.6576 29.8223 23.5701 29.836 23.4772C29.7471 24.1402 29.5735 24.7897 29.3164 25.4076C29.1961 25.7016 29.3192 26.0666 29.501 26.3031C29.6952 26.5561 29.9795 26.7064 30.3077 26.7064H32.6934H36.4916H37.3598C37.7836 26.7064 38.2594 26.3879 38.3469 25.9545C38.5629 24.9018 38.6818 23.8244 38.6818 22.7484C38.6818 22.2125 38.2101 21.6984 37.6564 21.723C37.1027 21.749 36.6351 22.1756 36.6324 22.7498L36.6324 22.7499Z" fill="#912D40"/>
</svg>
